<svg xmlns="http://www.w3.org/2000/svg" viewBox="0 0 50 50" enable-background="new 0 0 50 50">
    <path style="text-indent:0;text-align:start;line-height:normal;text-transform:none;block-progression:tb;-inkscape-font-specification:Bitstream Vera Sans" d="M 23 0 C 15.77381 0 10.445563 2.4968612 7 6.40625 C 3.554437 10.315639 2 15.559524 2 21 C 2 25.406349 3.376799 29.51398 5.6875 32.875 C 7.782309 35.921995 9 39.509722 9 43.1875 L 9 50 L 11 50 L 11 43.1875 C 11 39.102999 9.6421161 35.146356 7.375 31.8125 L 7.3125 31.71875 C 5.223201 28.67977 4 24.993651 4 21 C 4 15.940476 5.445563 11.184361 8.5 7.71875 C 11.079731 4.7917473 14.820891 2.7265202 20 2.15625 L 20 17.59375 C 17.080876 18.78836 15 21.659415 15 25 C 15 29.406433 18.593567 33 23 33 C 24.896969 33 26.657435 32.328886 28.03125 31.21875 L 33.25 34.84375 C 33.097266 35.20211 33 35.588747 33 36 C 33 37.64501 34.35499 39 36 39 C 37.64501 39 39 37.64501 39 36 C 39 34.35499 37.64501 33 36 33 C 35.490886 33 35.015735 33.146997 34.59375 33.375 L 29.40625 29.78125 C 30.402625 28.447168 31 26.786809 31 25 C 31 21.659415 28.919124 18.78836 26 17.59375 L 26 2.15625 C 31.123375 2.6586489 34.670935 4.4473779 37.125 7 C 40.035021 10.026889 41.466269 14.206294 42 18.71875 L 42.03125 18.9375 L 42.125 19.09375 L 46.84375 27.1875 L 46.8125 27.1875 C 47.062043 27.636677 46.938181 28.069066 46.5 28.3125 L 46.5 28.34375 L 42.5625 30.3125 L 42 30.59375 L 42 31.1875 L 42 36.59375 C 42 40.33561 38.915884 43.253076 35.1875 42.90625 L 35.15625 42.90625 L 32.0625 42.6875 L 31 42.625 L 31 43.6875 L 31 50 L 33 50 L 33 44.75 L 35 44.90625 C 35.0108 44.90725 35.02046 44.905288 35.03125 44.90625 C 39.888729 45.339217 44 41.441119 44 36.59375 L 44 31.8125 L 47.4375 30.09375 L 47.46875 30.09375 L 47.5 30.0625 C 48.861819 29.305934 49.312957 27.569573 48.5625 26.21875 L 48.5625 26.1875 L 43.9375 18.1875 C 43.343205 13.503708 41.810324 9.0032586 38.5625 5.625 C 35.247521 2.1768891 30.197619 0 23 0 z M 23 2 C 23.348743 2 23.6637 2.0210017 24 2.03125 L 24 17.0625 C 23.669496 17.02061 23.341567 17 23 17 C 22.658433 17 22.330504 17.02061 22 17.0625 L 22 2.03125 C 22.32829 2.0201109 22.661257 2 23 2 z M 23 19 C 26.325553 19 29 21.674447 29 25 C 29 28.325553 26.325553 31 23 31 C 19.674447 31 17 28.325553 17 25 C 17 21.674447 19.674447 19 23 19 z M 23 21 C 20.802706 21 19 22.802706 19 25 C 19 27.197294 20.802706 29 23 29 C 25.197294 29 27 27.197294 27 25 C 27 22.802706 25.197294 21 23 21 z M 23 23 C 24.116414 23 25 23.883586 25 25 C 25 26.116414 24.116414 27 23 27 C 21.883586 27 21 26.116414 21 25 C 21 23.883586 21.883586 23 23 23 z M 36 35 C 36.564128 35 37 35.435872 37 36 C 37 36.564128 36.564128 37 36 37 C 35.435872 37 35 36.564128 35 36 C 35 35.435872 35.435872 35 36 35 z"/>
</svg>
