<svg xmlns="http://www.w3.org/2000/svg" viewBox="0 0 50 50" enable-background="new 0 0 50 50">
    <path style="text-indent:0;text-align:start;line-height:normal;text-transform:none;block-progression:tb;-inkscape-font-specification:Bitstream Vera Sans" d="M 28.625 2 C 28.290433 2.0042266 27.943302 2.0169065 27.59375 2.0625 C 26.907467 2.152015 26.156739 2.3797901 25.59375 3 C 25.58323 3.011587 25.57287 3.019395 25.5625 3.03125 L 2.90625 25.6875 C 1.802189 26.791561 1.8174114 28.577042 2.84375 29.75 L 2.875 29.78125 L 2.90625 29.8125 L 20.28125 47.21875 C 21.385311 48.322811 23.170792 48.276339 24.34375 47.25 L 24.375 47.21875 L 24.40625 47.21875 L 47.09375 24.5 C 48.231483 23.362267 48.09375 21.8 48.09375 20.5 L 48.09375 20.34375 C 48.09382 20.344481 48.10055 20.35095 48.09375 20.3125 C 48.09275 20.3067 48.09525 20.28896 48.09375 20.28125 C 48.09185 20.24268 48.09575 20.150718 48.09375 20.09375 C 48.09085 20.00766 48.06532 19.933837 48.0625 19.8125 C 48.0531 19.409233 48.03826 18.820435 48.03125 18.125 C 48.017232 16.734131 48.006246 14.886374 48 13.03125 C 47.987508 9.3210022 48 5.6 48 5.5 C 48 3.5761905 46.42381 2 44.5 2 L 29.59375 2 C 29.281571 2 28.959567 1.9957734 28.625 2 z M 28.625 4 C 28.921683 3.9995391 29.25593 4 29.59375 4 L 44.5 4 C 45.37619 4 46 4.6238095 46 5.5 C 46 5.6 45.98749 9.3164978 46 13.03125 C 46.0063 14.888626 46.01714 16.756494 46.03125 18.15625 C 46.03835 18.856128 46.05273 19.423189 46.0625 19.84375 C 46.0674 20.05403 46.08746 20.245427 46.09375 20.375 C 46.09625 20.42683 46.08995 20.45359 46.09375 20.5 C 46.094699 20.5116 46.09265 20.51924 46.09375 20.53125 C 46.09035 21.809633 45.946683 22.834567 45.6875 23.09375 L 23.03125 45.75 C 23.02005 45.7598 23.01145 45.77201 23 45.78125 C 22.575076 46.12447 22.006927 46.069427 21.71875 45.78125 L 4.34375 28.4375 L 4.3125 28.40625 C 3.9691759 27.981317 4.0242964 27.381954 4.3125 27.09375 L 27 4.40625 L 27.03125 4.375 L 27.0625 4.34375 C 27.196883 4.1901689 27.392854 4.0900626 27.84375 4.03125 C 28.069198 4.0018437 28.328317 4.0004609 28.625 4 z M 39 7 C 36.802706 7 35 8.8027056 35 11 C 35 13.197294 36.802706 15 39 15 C 41.197294 15 43 13.197294 43 11 C 43 8.8027056 41.197294 7 39 7 z M 39 9 C 40.116414 9 41 9.883586 41 11 C 41 12.116414 40.116414 13 39 13 C 37.883586 13 37 12.116414 37 11 C 37 9.883586 37.883586 9 39 9 z M 32.3125 17 L 30.6875 18.59375 C 29.3875 17.59375 26.4 16.50625 24 18.90625 C 19.5 23.40625 28.4 27.69375 25 31.09375 C 23.8 32.29375 22.29375 32.79375 20.09375 30.59375 C 17.89375 28.39375 19.00625 26.0875 19.90625 25.1875 L 18.5 23.8125 C 15.7 27.1125 17.09375 29.9125 18.09375 31.3125 L 16.6875 32.6875 L 18.09375 34.09375 L 19.40625 32.8125 C 20.70625 33.7125 23.9875 35.39375 26.6875 32.59375 C 28.9875 30.29375 27.80625 27.70625 26.40625 25.40625 C 25.20625 23.50625 24.2875 21.80625 25.6875 20.40625 C 26.2875 19.80625 27.99375 18.5875 30.09375 20.6875 C 31.59375 22.1875 31.4 23.79375 30.5 25.09375 L 31.90625 26.5 C 33.00625 24.5 33.79375 22.4 32.09375 20 L 33.6875 18.40625 L 32.3125 17 z" color="#000" overflow="visible" enable-background="accumulate" font-family="Bitstream Vera Sans"/>
</svg>
