<svg xmlns="http://www.w3.org/2000/svg" width="50" height="50" viewBox="0 0 50 50">
    <path d="M 0.9375 0 A 1.0061006 1.0061006 0 0 0 0.125 0.84375 C -0.05131563 1.9653931 -0.08735057 3.6757335 0.125 5.5 C 0.33735057 7.3242665 0.78509573 9.2463277 1.8125 10.65625 L 15 29 L 15 35.875 C 14.560178 35.666276 14.06957 35.38865 13.5625 35.03125 C 12.216435 34.082498 11 32.705334 11 30.5625 C 11 29.299211 10.914092 28.218184 10.625 27.25 C 10.335908 26.281816 9.817608 25.431306 9.03125 24.78125 C 8.6145984 24.436612 8.1378498 24.269328 7.5625 24.125 C 6.9871502 23.980672 6.2826617 23.845176 5.5625 24.34375 A 1.0001 1.0001 0 0 0 5.25 25.65625 C 5.4512336 26.010116 5.9514738 27.001095 6.25 27.875 C 6.3742335 28.238681 6.4605573 28.539068 6.5 28.78125 C 6.425595 28.78235 6.452995 28.80835 6.34375 28.78125 C 6.0363035 28.704993 5.6392679 28.503158 5.25 28.125 C 4.4714642 27.368684 3.699366 25.877988 3.84375 23.0625 A 1.0001 1.0001 0 0 0 2.75 22 C 1.7502029 22.096497 0.88913705 22.813847 0.5 23.71875 C 0.11086295 24.623653 0 25.694121 0 27.03125 C 0 29.259491 1.0891176 31.367684 2.59375 33.3125 C 4.0983824 35.257316 6.0553321 37.077496 8 38.625 C 11.365772 41.303372 14.566854 43.123317 15.40625 43.59375 C 16.529951 47.284032 19.949695 50 24 50 C 28.958516 50 33 45.958516 33 41 L 33 21.03125 C 34.649787 23.050619 37.470344 26.494484 39.09375 28.46875 C 40.098242 29.691234 41.552764 31.048841 43.3125 31.96875 C 45.072236 32.888659 47.19123 33.361967 49.3125 32.65625 A 1.0001 1.0001 0 0 0 49.90625 31.3125 C 48.356557 27.679714 46.932778 24.940528 45.75 22.28125 A 1.0001 1.0001 0 0 0 45.65625 22.09375 C 41.78304 16.75437 32.09375 5.125 32.09375 5.125 C 30.639998 2.1025718 27.568971 0 24 0 C 19.041484 0 15 4.0414839 15 9 L 15 14 A 1.0061006 1.0061006 0 0 0 14.125 13.09375 L 13.0625 12.9375 L 13.3125 11.46875 A 1.0061006 1.0061006 0 0 0 12.46875 10.3125 L 10.96875 10.09375 L 11.21875 8.59375 A 1.0061006 1.0061006 0 0 0 10.375 7.46875 L 8.90625 7.21875 L 9.125 5.75 A 1.0061006 1.0061006 0 0 0 8.28125 4.59375 L 6.8125 4.375 L 7.03125 2.875 A 1.0061006 1.0061006 0 0 0 6.21875 1.71875 L 3.8125 1.34375 C 3.7168984 1.3216881 3.215164 1.1088675 2.78125 0.84375 C 2.347336 0.57863252 1.9710265 0.31381011 1.625 0.125 A 1.0061006 1.0061006 0 0 0 0.9375 0 z M 24 2 C 26.838584 2 29.274496 3.675753 30.375 6.09375 A 1.0001 1.0001 0 0 0 30.40625 6.1875 C 30.783945 7.0492568 31 7.9958647 31 9 L 31 18.0625 A 1.0004882 1.0004882 0 0 0 31 18.34375 L 31 41 C 31 44.877484 27.877484 48 24 48 C 20.716708 48 17.98202 45.759037 17.21875 42.71875 A 1.0001221 1.0001221 0 0 0 17.1875 42.625 C 17.064206 42.103297 17 41.560388 17 41 L 17 37.5 A 1.0087508 1.0087508 0 0 0 17 37.1875 L 17 28.78125 A 1.0063276 1.0063276 0 0 0 17 28.46875 L 17 17.84375 A 1.0140613 1.0140613 0 0 0 17 17.4375 L 17 9 C 17 5.1225161 20.122516 2 24 2 z M 2.125 2.75 C 2.5010563 2.9715171 2.8694512 3.2030464 3.34375 3.3125 A 1.0061006 1.0061006 0 0 0 3.40625 3.34375 L 4.90625 3.5625 L 4.65625 5.03125 A 1.0061006 1.0061006 0 0 0 5.5 6.1875 L 6.96875 6.4375 L 6.75 7.90625 A 1.0061006 1.0061006 0 0 0 7.59375 9.0625 L 9.0625 9.28125 L 8.84375 10.78125 A 1.0061006 1.0061006 0 0 0 9.6875 11.90625 L 11.15625 12.15625 L 10.90625 13.625 A 1.0061006 1.0061006 0 0 0 11.78125 14.78125 L 13 14.9375 L 13 16.40625 A 1.0061006 1.0061006 0 0 0 13.4375 17.25 L 15 18.25 L 15 25.53125 L 3.4375 9.46875 C 2.7889043 8.5786723 2.3158994 6.9212335 2.125 5.28125 C 2.0078572 4.2748965 2.0969026 3.5734413 2.125 2.75 z M 24 7 C 22.895431 7 22 7.8954305 22 9 C 22 10.104569 22.895431 11 24 11 C 25.104569 11 26 10.104569 26 9 C 26 7.8954305 25.104569 7 24 7 z M 33 9.375 C 35.787623 12.761618 41.097001 19.253481 44 23.25 C 44.0077 23.26057 44.02362 23.27073 44.03125 23.28125 C 45.061242 25.581047 46.281623 28.035593 47.53125 30.84375 C 46.421246 30.91876 45.322308 30.74805 44.25 30.1875 C 42.806986 29.433159 41.477508 28.225016 40.625 27.1875 C 38.59284 24.716137 33.313584 18.259328 33 17.875 L 33 9.375 z M 2.15625 25.71875 C 2.4785163 27.370487 3.0445381 28.755739 3.875 29.5625 C 4.5062321 30.175717 5.1978215 30.550788 5.875 30.71875 C 6.5521785 30.886712 7.2027518 30.901904 7.8125 30.53125 C 8.1796258 30.30737 8.3929929 29.925319 8.46875 29.625 C 8.5445071 29.324681 8.55498 29.040106 8.53125 28.78125 C 8.48379 28.263538 8.3341119 27.770672 8.15625 27.25 C 8.0318458 26.885819 7.8926809 26.680866 7.75 26.34375 C 8.238642 26.747694 8.520092 27.178434 8.71875 27.84375 C 8.917408 28.509066 9 29.391789 9 30.5625 C 9 33.493666 10.783565 35.521752 12.4375 36.6875 C 13.51799 37.449065 14.38852 37.835039 15 38.0625 L 15 41 C 15 41.010674 14.999963 41.020585 15 41.03125 C 13.563368 40.14891 11.459056 38.789146 9.25 37.03125 C 7.3846679 35.546879 5.5403676 33.842402 4.1875 32.09375 C 2.8346324 30.345098 2 28.588509 2 27.03125 C 2 26.401654 2.094817 26.152167 2.15625 25.71875 z M 23 38 L 23 40 L 21 40 L 21 42 L 23 42 L 23 44 L 25 44 L 25 42 L 27 42 L 27 40 L 25 40 L 25 38 L 23 38 z"/>
</svg>
