<svg xmlns="http://www.w3.org/2000/svg" width="50" height="50" viewBox="0 0 50 50">
    <path style="text-indent:0;text-align:start;line-height:normal;text-transform:none;block-progression:tb;-inkscape-font-specification:Bitstream Vera Sans" d="M 28.625 2 C 28.284565 2.0044213 27.939531 2.017685 27.59375 2.0625 C 26.902187 2.15213 26.145964 2.3852865 25.5625 2.96875 L 2.84375 25.6875 C 1.7218744 26.807857 1.7218744 28.660893 2.84375 29.78125 L 20.21875 47.15625 C 21.339367 48.276867 23.191883 48.276867 24.3125 47.15625 L 47.03125 24.4375 C 47.610334 23.8592 47.847588 23.095323 47.9375 22.40625 C 48.027412 21.717177 48 21.037843 48 20.375 L 48 5.5 C 48 3.5788117 46.421188 2 44.5 2 L 29.625 2 C 29.301272 2 28.965435 1.9955788 28.625 2 z M 28.65625 4 C 28.95069 3.9918587 29.283728 4 29.625 4 L 44.5 4 C 45.340812 4 46 4.6591883 46 5.5 L 46 20.375 C 46 21.072157 45.9971 21.699573 45.9375 22.15625 C 45.877912 22.612927 45.783916 22.8413 45.625 23 L 22.90625 45.75 C 22.550867 46.105383 21.980383 46.105383 21.625 45.75 L 21.5 45.59375 L 4.25 28.375 C 3.8938756 28.019357 3.8938756 27.449393 4.25 27.09375 L 27 4.375 C 27.154536 4.2204635 27.413063 4.1223696 27.875 4.0625 C 28.105968 4.0325652 28.36181 4.0081413 28.65625 4 z M 39 7 C 36.802706 7 35 8.8027056 35 11 C 35 13.197294 36.802706 15 39 15 C 41.197294 15 43 13.197294 43 11 C 43 8.8027056 41.197294 7 39 7 z M 39 9 C 40.116414 9 41 9.883586 41 11 C 41 12.116414 40.116414 13 39 13 C 37.883586 13 37 12.116414 37 11 C 37 9.883586 37.883586 9 39 9 z M 27.6875 18.53125 C 26.1735 18.57525 24.611 19.13375 23 20.21875 L 22.09375 19.3125 L 20.65625 19.90625 L 21.875 21.09375 C 21.786 21.15975 21.68175 21.2245 21.59375 21.3125 L 21.3125 21.59375 C 21.2575 21.64875 21.21025 21.72625 21.15625 21.78125 C 21.10225 21.83625 21.043 21.8715 21 21.9375 L 20.25 21.1875 L 18.8125 21.75 L 20.0625 23.03125 C 17.3335 26.68125 17.315 29.84525 20 32.53125 C 20.954 33.48425 22.045 34.08075 23.25 34.34375 L 24.96875 32.625 C 24.08075 32.591 23.41875 32.48775 22.96875 32.34375 C 22.35475 32.14775 21.775 31.80625 21.25 31.28125 C 19.529 29.56025 19.66125 27.344 21.65625 24.625 L 25.25 28.1875 L 26.6875 27.625 L 22.59375 23.53125 C 22.63675 23.46425 22.695 23.39875 22.75 23.34375 C 22.805 23.28775 22.84125 23.22225 22.90625 23.15625 C 22.98325 23.08025 23.06825 22.99425 23.15625 22.90625 C 23.24325 22.81825 23.3385 22.7645 23.4375 22.6875 L 27.78125 27 L 29.21875 26.4375 L 24.5625 21.78125 C 25.6585 21.05725 26.7005 20.631 27.6875 20.5 C 28.9255 20.336 29.95925 20.678 30.78125 21.5 C 31.58125 22.299 31.989 23.44475 32 24.96875 L 34.125 24.375 C 33.83 22.697 33.1845 21.34175 32.1875 20.34375 C 30.8935 19.05075 29.3985 18.46625 27.6875 18.53125 z" color="#000" overflow="visible" enable-background="accumulate" font-family="Bitstream Vera Sans"/>
</svg>
